<svg version="1.1" xmlns="http://www.w3.org/2000/svg">
  <defs>  
    <symbol id='star' xmlns="http://www.w3.org/2000/svg" viewBox="0 0 20 21" fill="inherit">
      <path d="M11.4421 3.42501L12.9087 6.35835C13.1087 6.76668 13.6421 7.15835 14.0921 7.23335L16.7504 7.67501C18.4504 7.95835 18.8504 9.19168 17.6254 10.4083L15.5587 12.475C15.2087 12.825 15.0171 13.5 15.1254 13.9833L15.7171 16.5417C16.1837 18.5667 15.1087 19.35 13.3171 18.2917L10.8254 16.8167C10.3754 16.55 9.63375 16.55 9.17541 16.8167L6.68375 18.2917C4.90041 19.35 3.81708 18.5583 4.28375 16.5417L4.87541 13.9833C4.98375 13.5 4.79208 12.825 4.44208 12.475L2.37541 10.4083C1.15875 9.19168 1.55041 7.95835 3.25041 7.67501L5.90875 7.23335C6.35041 7.15835 6.88375 6.76668 7.08375 6.35835L8.55041 3.42501C9.35041 1.83335 10.6504 1.83335 11.4421 3.42501Z" fill='inherit' stroke="inherit" stroke-width="1.5" stroke-linecap="round" stroke-linejoin="round"/>
    </symbol>

    
    <symbol id="paperClip" viewBox="0 0 24 25" fill="inherit" xmlns="http://www.w3.org/2000/svg">
      <path id="Vector"
            d="M15.172 6.99992L8.58602 13.5859C8.395 13.7704 8.24264 13.9911 8.13782 14.2351C8.033 14.4791 7.97783 14.7416 7.97552 15.0071C7.97321 15.2727 8.02381 15.536 8.12438 15.7818C8.22494 16.0276 8.37344 16.2509 8.56123 16.4387C8.74902 16.6265 8.97232 16.775 9.21811 16.8756C9.4639 16.9761 9.72726 17.0267 9.99282 17.0244C10.2584 17.0221 10.5208 16.9669 10.7648 16.8621C11.0088 16.7573 11.2295 16.6049 11.414 16.4139L17.828 9.82792C18.5567 9.07351 18.9598 8.0631 18.9507 7.01431C18.9416 5.96553 18.5209 4.96228 17.7793 4.22065C17.0377 3.47901 16.0344 3.05834 14.9856 3.04922C13.9368 3.04011 12.9264 3.44329 12.172 4.17192L5.75702 10.7569C4.63171 11.8822 3.99951 13.4085 3.99951 14.9999C3.99951 16.5914 4.63171 18.1176 5.75702 19.2429C6.88233 20.3682 8.40859 21.0004 10 21.0004C11.5915 21.0004 13.1177 20.3682 14.243 19.2429L20.5 12.9999"
            stroke="#6B7280" stroke-width="2" stroke-linecap="round" stroke-linejoin="round"/>
    </symbol>


    <symbol id="task" xmlns="http://www.w3.org/2000/svg"  fill="inherit" stroke='inherit' viewBox="0 0 470.767 470.767">
      <g>
      	<path d="M362.965,21.384H289.62L286.638,7.99C285.614,3.323,281.467,0,276.685,0h-82.618c-4.782,0-8.913,3.323-9.953,7.99   l-2.967,13.394h-73.36c-26.835,0-48.654,21.827-48.654,48.662v352.06c0,26.835,21.819,48.662,48.654,48.662h255.179   c26.835,0,48.67-21.827,48.67-48.662V70.046C411.635,43.211,389.8,21.384,362.965,21.384z M379.831,422.105   c0,9.295-7.563,16.858-16.866,16.858H107.786c-9.287,0-16.85-7.563-16.85-16.858V70.046c0-9.295,7.563-16.857,16.85-16.857h66.294   l-1.692,7.609c-0.684,3.02,0.062,6.188,1.988,8.596c1.94,2.415,4.876,3.82,7.965,3.82h106.082c3.091,0,6.026-1.405,7.951-3.82   c1.942-2.415,2.687-5.575,2.004-8.596l-1.692-7.609h66.279c9.303,0,16.866,7.563,16.866,16.857V422.105z" fill='inherit' />
      	<path d="M170.835,188.426h43.249l-10.279-7.019c-14.506-9.899-18.232-29.693-8.325-44.197c9.893-14.489,29.693-18.239,44.197-8.324   l1.694,1.157v-12.136c0-7.866-6.383-14.248-14.242-14.248h-56.294c-7.857,0-14.24,6.383-14.24,14.248v56.271   C156.595,182.045,162.978,188.426,170.835,188.426z" fill='inherit' />
      	<path d="M303.256,110.313l-49.85,47.194l-22.704-15.49c-7.221-4.962-17.13-3.083-22.099,4.162   c-4.954,7.251-3.09,17.144,4.178,22.098l33.28,22.727c2.718,1.864,5.839,2.772,8.961,2.772c3.96,0,7.888-1.474,10.933-4.356   l59.167-56.014c6.382-6.033,6.645-16.104,0.62-22.479C319.686,104.552,309.637,104.28,303.256,110.313z" fill='inherit' />
      	<path d="M170.835,297.669H214.1l-10.295-7.027c-14.506-9.901-18.232-29.693-8.325-44.197c9.893-14.498,29.693-18.248,44.197-8.325   l1.694,1.158v-12.136c0-7.865-6.383-14.248-14.242-14.248h-56.294c-7.857,0-14.24,6.383-14.24,14.248v56.279   C156.595,291.286,162.978,297.669,170.835,297.669z" fill='inherit' />
      	<path d="M303.256,219.555l-49.85,47.186l-22.704-15.49c-7.221-4.97-17.13-3.098-22.099,4.162   c-4.954,7.253-3.09,17.144,4.178,22.099l33.28,22.727c2.718,1.864,5.839,2.772,8.961,2.772c3.96,0,7.888-1.476,10.933-4.356   l59.167-56.007c6.382-6.033,6.645-16.096,0.62-22.479C319.686,213.793,309.637,213.529,303.256,219.555z" fill='inherit' />
      	<path d="M227.129,322.135h-56.294c-7.857,0-14.24,6.383-14.24,14.248v56.271c0,7.865,6.383,14.248,14.24,14.248h56.294   c7.859,0,14.242-6.383,14.242-14.248v-56.271C241.371,328.518,234.988,322.135,227.129,322.135z" fill='inherit' />
      </g>
    </symbol>
</defs>
</svg>